<?xml version="1.0" encoding="UTF-8" standalone="no"?>
<svg
   class="ionicon"
   viewBox="0 0 416 416"
   version="1.1"
   id="svg19773"
   sodipodi:docname="play-skip-back-circle-2.svg"
   width="416"
   height="416"
   inkscape:version="1.2.2 (732a01da63, 2022-12-09, custom)"
   xmlns:inkscape="http://www.inkscape.org/namespaces/inkscape"
   xmlns:sodipodi="http://sodipodi.sourceforge.net/DTD/sodipodi-0.dtd"
   xmlns="http://www.w3.org/2000/svg"
   xmlns:svg="http://www.w3.org/2000/svg">
  <defs
     id="defs19777" />
  <sodipodi:namedview
     id="namedview19775"
     pagecolor="#ffffff"
     bordercolor="#666666"
     borderopacity="1.0"
     inkscape:showpageshadow="2"
     inkscape:pageopacity="0.0"
     inkscape:pagecheckerboard="0"
     inkscape:deskcolor="#d1d1d1"
     showgrid="false"
     inkscape:zoom="1.5273438"
     inkscape:cx="209.1867"
     inkscape:cy="208.53197"
     inkscape:window-width="1920"
     inkscape:window-height="1016"
     inkscape:window-x="0"
     inkscape:window-y="0"
     inkscape:window-maximized="1"
     inkscape:current-layer="svg19773" />
  <path
     d="M 0,208 C 0,322.69 93.31,416 208,416 322.69,416 416,322.69 416,208 416,93.31 322.69,0 208,0 93.31,0 0,93.31 0,208 Z m 128,-64 a 16,16 0 0 1 32,0 v 53 l 111.68,-67.46 a 10.78,10.78 0 0 1 16.32,9.33 v 138.26 a 10.78,10.78 0 0 1 -16.32,9.31 L 160,219 v 53 a 16,16 0 0 1 -32,0 z"
     id="path19771" />
</svg>
