<?xml version="1.0" encoding="UTF-8" standalone="no"?>
<svg
   class="ionicon"
   viewBox="0 0 384 384"
   version="1.1"
   id="svg22"
   sodipodi:docname="zoom-out-2.svg"
   inkscape:version="1.2.2 (732a01da63, 2022-12-09, custom)"
   width="384"
   height="384"
   xmlns:inkscape="http://www.inkscape.org/namespaces/inkscape"
   xmlns:sodipodi="http://sodipodi.sourceforge.net/DTD/sodipodi-0.dtd"
   xmlns="http://www.w3.org/2000/svg"
   xmlns:svg="http://www.w3.org/2000/svg">
  <defs
     id="defs26" />
  <sodipodi:namedview
     id="namedview24"
     pagecolor="#ffffff"
     bordercolor="#666666"
     borderopacity="1.0"
     inkscape:showpageshadow="2"
     inkscape:pageopacity="0.0"
     inkscape:pagecheckerboard="0"
     inkscape:deskcolor="#d1d1d1"
     showgrid="false"
     inkscape:zoom="2.1599902"
     inkscape:cx="122.45426"
     inkscape:cy="174.76931"
     inkscape:window-width="1920"
     inkscape:window-height="1016"
     inkscape:window-x="0"
     inkscape:window-y="0"
     inkscape:window-maximized="1"
     inkscape:current-layer="svg22" />
  <path
     d="M 192,0 C 86.13,0 0,86.13 0,192 0,297.87 86.13,384 192,384 297.87,384 384,297.87 384,192 384,86.13 297.87,0 192,0 Z m 91.31,283.31 a 16,16 0 0 1 -22.62,0 l -42.84,-42.83 a 88.08,88.08 0 1 1 22.63,-22.63 l 42.83,42.84 a 16,16 0 0 1 0,22.62 z"
     id="path18" />
  <circle
     cx="168"
     cy="168"
     r="56"
     id="circle20" />
  <path
     style="fill:#ffffff;stroke:#ffffff;stroke-width:15;stroke-linecap:butt;stroke-linejoin:miter;stroke-dasharray:none;stroke-opacity:1"
     d="m 137.23939,168.70235 58.17145,0.60399"
     id="path186-3"
     sodipodi:nodetypes="cc" />
</svg>
